# Blender 5.0.1
# www.blender.org
mtllib cornell_box.mtl
o cornell_box
v -5.528002 0.000000 0.000002
v 0.000000 0.000000 0.000000
v -0.000002 0.000000 -5.592002
v -5.496004 0.000000 -5.592000
v -5.560002 5.488002 0.000002
v -5.560004 5.488003 -5.592000
v -0.000002 5.488003 -5.592002
v 0.000000 5.488002 0.000000
v -5.496004 0.000000 -5.592000
v -0.000002 0.000000 -5.592002
v -0.000002 5.488003 -5.592002
v -5.560004 5.488003 -5.592000
v -0.000002 0.000000 -5.592002
v 0.000000 0.000000 0.000000
v 0.000000 5.488002 0.000000
v -0.000002 5.488003 -5.592002
v -5.528002 0.000000 0.000002
v -5.496004 0.000000 -5.592000
v -5.560004 5.488003 -5.592000
v -5.560002 5.488002 0.000002
v -1.300001 1.650001 -0.650000
v -0.820001 1.650001 -2.250000
v -2.400002 1.650001 -2.720000
v -2.900002 1.650001 -1.139999
v -2.900002 0.000000 -1.140000
v -2.900002 1.650001 -1.139999
v -2.400002 1.650001 -2.720000
v -2.400002 0.000000 -2.720001
v -1.300001 0.000000 -0.650000
v -1.300001 1.650001 -0.650000
v -2.900002 1.650001 -1.139999
v -2.900002 0.000000 -1.140000
v -0.820001 0.000000 -2.250001
v -0.820001 1.650001 -2.250000
v -1.300001 1.650001 -0.650000
v -1.300001 0.000000 -0.650000
v -2.400002 0.000000 -2.720001
v -2.400002 1.650001 -2.720000
v -0.820001 1.650001 -2.250000
v -0.820001 0.000000 -2.250001
v -4.230003 3.300002 -2.469999
v -2.650002 3.300002 -2.960000
v -3.140003 3.300002 -4.560000
v -4.720004 3.300002 -4.060000
v -4.230003 0.000000 -2.470000
v -4.230003 3.300002 -2.469999
v -4.720004 3.300002 -4.060000
v -4.720004 0.000000 -4.060000
v -4.720004 0.000000 -4.060000
v -4.720004 3.300002 -4.060000
v -3.140003 3.300002 -4.560000
v -3.140003 0.000000 -4.560001
v -3.140003 0.000000 -4.560001
v -3.140003 3.300002 -4.560000
v -2.650002 3.300002 -2.960000
v -2.650002 0.000000 -2.960000
v -2.650002 0.000000 -2.960000
v -2.650002 3.300002 -2.960000
v -4.230003 3.300002 -2.469999
v -4.230003 0.000000 -2.470000
vn -0.0000 1.0000 -0.0000
vn -0.0000 -1.0000 -0.0000
vn -0.0000 -0.0000 1.0000
vn -1.0000 -0.0000 -0.0000
vn 1.0000 0.0087 0.0028
vn 0.9999 0.0117 0.0057
vn 1.0000 0.0088 0.0029
vn 1.0000 0.0058 -0.0000
vn -0.9534 -0.0000 -0.3017
vn -0.2928 -0.0000 0.9562
vn 0.9578 -0.0000 0.2873
vn 0.2851 -0.0000 -0.9585
vn -0.9556 -0.0000 0.2945
vn -0.3017 -0.0000 -0.9534
vn 0.9562 -0.0000 -0.2928
vn 0.2962 -0.0000 0.9551
s 1
usemtl floor
f 1//1 2//1 3//1
f 1//1 3//1 4//1
usemtl ceiling
f 5//2 6//2 7//2
f 5//2 7//2 8//2
usemtl back
f 9//3 10//3 11//3
f 9//3 11//3 12//3
usemtl green
f 13//4 14//4 15//4
f 13//4 15//4 16//4
usemtl red
f 17//5 18//6 19//7
f 17//5 19//7 20//8
usemtl short_box
f 21//1 22//1 23//1
f 21//1 23//1 24//1
f 25//9 26//9 27//9
f 25//9 27//9 28//9
f 29//10 30//10 31//10
f 29//10 31//10 32//10
f 33//11 34//11 35//11
f 33//11 35//11 36//11
f 37//12 38//12 39//12
f 37//12 39//12 40//12
usemtl tall_box
f 41//1 42//1 43//1
f 41//1 43//1 44//1
f 45//13 46//13 47//13
f 45//13 47//13 48//13
f 49//14 50//14 51//14
f 49//14 51//14 52//14
f 53//15 54//15 55//15
f 53//15 55//15 56//15
f 57//16 58//16 59//16
f 57//16 59//16 60//16

# Light panel on ceiling (center)
v -3.400001 5.470000 -3.460001
v -2.130001 5.470000 -3.460001
v -2.130001 5.470000 -2.130001
v -3.400001 5.470000 -2.130001
vn 0.0000 -1.0000 0.0000
usemtl light
f 61//17 62//17 63//17
f 61//17 63//17 64//17
